name C:\Users\tom_v\MusculoskeletalSpecialization\ResultsSprinting\Case_3\motion.mot
datacolumns 32
datarows 8
range 0.43142344 0.47168963
endheader 
time	pelvis_tilt	pelvis_list	pelvis_rotation	pelvis_tx	pelvis_ty	pelvis_tz	hip_flexion_r	hip_adduction_r	hip_rotation_r	knee_angle_r	ankle_angle_r	subtalar_angle_r	mtp_angle_r	hip_flexion_l	hip_adduction_l	hip_rotation_l	knee_angle_l	ankle_angle_l	subtalar_angle_l	mtp_angle_l	lumbar_extension	lumbar_bending	lumbar_rotation	arm_flex_r	arm_add_r	arm_rot_r	elbow_flex_r	arm_flex_l	arm_add_l	arm_rot_l	elbow_flex_l	
          0.43142344	        -13.21641972	         -1.71876098	         -0.31383647	          1.42521818	          0.88392513	         -0.00625846	         41.03878087	          2.26819541	         -3.19822229	        -71.06919376	         21.09558633	          5.42223047	          2.33845402	         15.53274353	          4.24720623	          5.53448768	        -40.05321007	         17.27806887	         -0.09505127	         37.78798612	         -2.02496063	          1.79440798	         -2.76571811	         -7.24029894	         -6.89222194	          2.05296623	         73.48543828	         17.93514077	          0.56163201	         18.19452708	          0.66553759	
          0.43717575	        -13.25670028	         -1.94504524	         -0.35231242	          1.44431649	          0.88606062	         -0.00626078	         42.19146760	          2.53961255	         -3.36127945	        -69.80380458	         21.22999797	          5.28746447	          2.15722645	         13.88743861	          3.71228370	          5.21633500	        -38.97274082	         15.80664158	          0.60579340	         39.72224665	         -2.04681130	          2.23105402	         -3.02215738	         -7.77499317	         -6.94869366	          1.76075059	         75.32776166	         17.96009753	          0.60830244	         17.91724331	          0.33444698	
          0.44292807	        -13.29413121	         -2.15472056	         -0.39635914	          1.46351452	          0.88808689	         -0.00624005	         43.27145079	          2.79792078	         -3.49577985	        -68.40674956	         21.30198633	          5.18925680	          1.98826120	         12.25881607	          3.19819339	          4.90821353	        -37.92490516	         14.31596195	          1.36397727	         41.38862881	         -2.05900060	          2.64895870	         -3.26900676	         -8.25790030	         -6.99646833	          1.50877717	         76.99547861	         17.92518508	          0.62695172	         17.68159754	          0.13638898	
          0.44868038	        -13.32835933	         -2.34322312	         -0.44437667	          1.48279352	          0.88997451	         -0.00619845	         44.28084255	          3.03942119	         -3.59828922	        -66.89031732	         21.32323291	          5.12178544	          1.83029971	         10.66993039	          2.71059980	          4.61331126	        -36.95696039	         12.85082513	          2.19339298	         42.68123844	         -2.06318751	          3.04175980	         -3.50511665	         -8.68870042	         -7.03622097	          1.29500171	         78.49030809	         17.84534648	          0.62451197	         17.50142669	          0.03520249	
          0.45443269	        -13.35912563	         -2.50890751	         -0.49568313	          1.50213795	          0.89170573	         -0.00614103	         45.22115387	          3.26342102	         -3.66563139	        -65.26538101	         21.30444662	          5.07912931	          1.68200917	          9.14151664	          2.25558936	          4.33899653	        -36.10559994	         11.40124682	          3.07306665	         43.60266354	         -2.06112915	          3.40752254	         -3.72877991	         -9.06658718	         -7.06959518	          1.11810111	         79.81255308	         17.73296058	          0.60764928	         17.38376317	          0.00094554	
          0.46018500	        -13.38639401	         -2.65260398	         -0.54952597	          1.52153300	          0.89326872	         -0.00606814	         46.09358974	          3.47181101	         -3.69627117	        -63.54066364	         21.25549657	          5.05589048	          1.54289565	          7.68899927	          1.83283086	          4.08846876	        -35.38999439	          9.93857380	          3.98827146	         44.21410685	         -2.05490659	          3.74651630	         -3.93863164	         -9.39046029	         -7.09785915	          0.97754920	         80.96177273	         17.59856774	          0.58148687	         17.33006676	          0.00938849	
          0.46593732	        -13.41023829	         -2.77373958	         -0.60434200	          1.54096534	          0.89465486	         -0.00597957	         46.89873722	          3.66308929	         -3.69264193	        -61.72304844	         21.18349281	          5.04783900	          1.41293368	          6.32232797	          1.44251623	          3.86540412	        -34.81887366	          8.44690272	          4.92983977	         44.55541940	         -2.04666298	          4.05684328	         -4.13365251	         -9.65985001	         -7.12145393	          0.87265616	         81.93740136	         17.45123121	          0.54968417	         17.33751261	          0.04149354	
          0.47168963	        -13.43066040	         -2.87299775	         -0.65854286	          1.56042304	          0.89585797	         -0.00587295	         47.63446768	          3.83754419	         -3.65701881	        -59.81389424	         21.09511333	          5.05014225	          1.29157519	          5.04992214	          1.08215803	          3.66996447	        -34.40013009	          6.92362163	          5.89645312	         44.64350739	         -2.03864111	          4.33766983	         -4.31253328	         -9.87468670	         -7.14069176	          0.80280117	         82.73910090	         17.29841565	          0.51495627	         17.39926156	          0.08337904	
